<svg xmlns="http://www.w3.org/2000/svg" width="91.574" height="186.079" viewBox="0 0 91.574 186.079">
  <g id="Group_111" data-name="Group 111" transform="translate(21.325 -0.447) rotate(13)">
    <g id="Group_9" data-name="Group 9" transform="translate(15.507 0)">
      <path id="Path_20" data-name="Path 20" d="M49.615,29.557A25.013,25.013,0,1,1,29.557.42,25.014,25.014,0,0,1,49.615,29.557Z" transform="translate(0 0)" fill="none" stroke="#f3a84e" stroke-miterlimit="10" stroke-width="5"/>
      <path id="Path_21" data-name="Path 21" d="M12.474,0,9.4,25.226l-4.342,35.6L0,102.268" transform="translate(1.926 47.876)" fill="none" stroke="#f3a84e" stroke-miterlimit="10" stroke-width="5"/>
      <line id="Line_31" data-name="Line 31" x1="34.734" y1="49.253" transform="translate(8.556 98.411)" fill="none" stroke="#f3a84e" stroke-miterlimit="10" stroke-width="5"/>
      <path id="Path_22" data-name="Path 22" d="M0,1.632S13.718-3.61,16.608,4.7L27.265,18.86" transform="translate(11.692 68.448)" fill="none" stroke="#f3a84e" stroke-miterlimit="10" stroke-width="5"/>
      <ellipse id="Ellipse_8" data-name="Ellipse 8" cx="15.505" cy="15.505" rx="15.505" ry="15.505" transform="translate(53.498 134.254)" fill="none" stroke="#f3a84e" stroke-miterlimit="10" stroke-width="5"/>
    </g>
    <path id="Path_23" data-name="Path 23" d="M27.013,0,11.959,11.215S2.79,14.8,0,9.621" transform="translate(0 70.332)" fill="none" stroke="#f3a84e" stroke-miterlimit="10" stroke-width="5"/>
  </g>
</svg>
