<svg xmlns="http://www.w3.org/2000/svg" width="145.635" height="197.049" viewBox="0 0 145.635 197.049">
  <g id="Group_107" data-name="Group 107" transform="translate(2.54 3.399)">
    <path id="Path_14" data-name="Path 14" d="M142.657-180.5c26.5-45.19-28.155-133.226-28.155-133.226s-12.422,7.357-7.453,14.81" transform="translate(-44.042 313.729)" fill="none" stroke="#f3a84e" stroke-miterlimit="10" stroke-width="5"/>
    <g id="Group_5" data-name="Group 5" transform="translate(0 24.746)">
      <path id="Path_15" data-name="Path 15" d="M13.611-257.917c-8.413-7.239,0-17.39,0-17.39s53.471,60.45,30.284,120.9c0,0-9.464,18.218-19.874,0" transform="translate(-9.871 275.307)" fill="none" stroke="#f3a84e" stroke-miterlimit="10" stroke-width="5"/>
      <path id="Path_16" data-name="Path 16" d="M43.686-248.809l62.071-26.226,9.388,21.515L53.9-226.84l6.891,26.774,62.914-26.877,4.064,26.877L61.76-172.527" transform="translate(-21.907 275.21)" fill="none" stroke="#f3a84e" stroke-miterlimit="10" stroke-width="5"/>
      <path id="Path_17" data-name="Path 17" d="M22.6-72.2c4.371-6.819,10.731-14.568,18.695-13.082,5.9,1.1,10.76,7.258,16.619,5.958,8.681-1.926,7.433-16.819,15.551-20.446,5.281-2.36,11.066,1.477,15.928,4.612s12.036,5.425,15.809,1.041c2.641-3.068,2.028-7.938,4.446-11.184,3.676-4.935,11.359-3.2,17.056-.872,2.693,1.1,5.642,2.241,8.432,1.418,5.549-1.639,6.212-9.124,5.772-14.893" transform="translate(-14.4 219.902)" fill="none" stroke="#f3a84e" stroke-miterlimit="10" stroke-width="1"/>
      <path id="Path_18" data-name="Path 18" d="M36.349-36.973C37.9-41.16,39.491-45.428,42.3-48.9s7.084-6.072,11.532-5.7c4.707.4,8.508,3.888,12.894,5.643A18.5,18.5,0,0,0,85.4-52.174c6.128-5.393,10.055-15.521,18.2-14.962,2.377.163,4.554,1.324,6.662,2.434,7.454,3.928,17.6,7.177,23.448,1.112,2.085-2.162,3.1-5.115,4.708-7.652,4.823-7.61,15.627-10.717,23.756-6.83" transform="translate(-19.295 205.703)" fill="none" stroke="#f3a84e" stroke-miterlimit="10" stroke-width="1"/>
    </g>
  </g>
</svg>
