<svg xmlns="http://www.w3.org/2000/svg" width="123.972" height="180.854" viewBox="0 0 123.972 180.854">
  <g id="Group_109" data-name="Group 109" transform="translate(2.544 2.5)">
    <ellipse id="Ellipse_6" data-name="Ellipse 6" cx="19.596" cy="19.596" rx="19.596" ry="19.596" transform="translate(40.321)" fill="none" stroke="#f3a84e" stroke-miterlimit="10" stroke-width="5"/>
    <path id="Path_8" data-name="Path 8" d="M185.77,849.409l-.956-26.465H204.67l10.734,9.783,6.691-6.691c.956-4.78-13.861-12.876-13.861-12.876h-91.7s-15.841,5.229-12.973,12.876l8.6,9.559,13.382-10.515,18.162-.956,1.912,25.285" transform="translate(-103.216 -761.625)" fill="none" stroke="#f3a84e" stroke-miterlimit="10" stroke-width="5"/>
    <path id="Path_9" data-name="Path 9" d="M189.658,855.087c19.274,2.7,32.839,9.15,32.839,16.676,0,9.959-23.753,18.032-53.053,18.032s-53.052-8.073-53.052-18.032c0-7.062,11.946-13.176,29.344-16.135" transform="translate(-107.441 -775.07)" fill="none" stroke="#f3a84e" stroke-linecap="round" stroke-miterlimit="10" stroke-width="5"/>
    <path id="Path_10" data-name="Path 10" d="M223.788,892.619V962.96H124.34V892.619" transform="translate(-109.99 -787.106)" fill="none" stroke="#f3a84e" stroke-linecap="round" stroke-miterlimit="10" stroke-width="5"/>
    <path id="Path_11" data-name="Path 11" d="M149.083,877.673l4.78-6.269,9.385,6.269,7.821-6.269,11.319,6.269,10.63-6.269,9.421,6.269,8.777-6.269,5.735,6.269" transform="translate(-117.925 -780.303)" fill="none" stroke="#f3a84e" stroke-linecap="round" stroke-miterlimit="10" stroke-width="5"/>
  </g>
</svg>
