<svg xmlns="http://www.w3.org/2000/svg" width="148" height="38" viewBox="0 0 148 38">
  <g id="Group_24" data-name="Group 24" transform="translate(3230.933 -3522.202)">
    <path id="Polygon_5" data-name="Polygon 5" d="M19.114,10.171a3,3,0,0,1,5.772,0l.858,3.024A3,3,0,0,0,28.8,15.371l2.617-.147a3,3,0,0,1,1.669,5.593l-1.646.95a3,3,0,0,0-1.251,3.795l.885,2.036a3,3,0,0,1-4.551,3.6L23.8,29.153a3,3,0,0,0-3.6,0l-2.722,2.041a3,3,0,0,1-4.551-3.6l.885-2.036a3,3,0,0,0-1.251-3.795l-1.646-.95a3,3,0,0,1,1.669-5.593l2.617.147a3,3,0,0,0,3.055-2.176Z" transform="translate(-3230.933 3522.202)" fill="#f7941d"/>
    <path id="Polygon_2" data-name="Polygon 2" d="M18.609,10.425a3,3,0,0,1,5.782,0l.762,2.749a3,3,0,0,0,3.064,2.193l2.439-.141a3,3,0,0,1,1.7,5.578l-1.633.965a3,3,0,0,0-1.235,3.756l.84,1.977a3,3,0,0,1-4.587,3.554L23.326,29.2a3,3,0,0,0-3.653,0l-2.412,1.851A3,3,0,0,1,12.674,27.5l.84-1.977a3,3,0,0,0-1.235-3.756L10.646,20.8a3,3,0,0,1,1.7-5.578l2.439.141a3,3,0,0,0,3.064-2.193Z" transform="translate(-3194.933 3522.202)" fill="#f7941d"/>
    <path id="Polygon_3" data-name="Polygon 3" d="M19.114,10.171a3,3,0,0,1,5.772,0l.858,3.024A3,3,0,0,0,28.8,15.371l2.617-.147a3,3,0,0,1,1.669,5.593l-1.646.95a3,3,0,0,0-1.251,3.795l.885,2.036a3,3,0,0,1-4.551,3.6L23.8,29.153a3,3,0,0,0-3.6,0l-2.722,2.041a3,3,0,0,1-4.551-3.6l.885-2.036a3,3,0,0,0-1.251-3.795l-1.646-.95a3,3,0,0,1,1.669-5.593l2.617.147a3,3,0,0,0,3.055-2.176Z" transform="translate(-3158.933 3522.202)" fill="#f7941d"/>
    <path id="Polygon_4" data-name="Polygon 4" d="M19.114,10.171a3,3,0,0,1,5.772,0l.858,3.024A3,3,0,0,0,28.8,15.371l2.617-.147a3,3,0,0,1,1.669,5.593l-1.646.95a3,3,0,0,0-1.251,3.795l.885,2.036a3,3,0,0,1-4.551,3.6L23.8,29.153a3,3,0,0,0-3.6,0l-2.722,2.041a3,3,0,0,1-4.551-3.6l.885-2.036a3,3,0,0,0-1.251-3.795l-1.646-.95a3,3,0,0,1,1.669-5.593l2.617.147a3,3,0,0,0,3.055-2.176Z" transform="translate(-3126.933 3522.202)" fill="#f7941d"/>
  </g>
</svg>
